G04 Layer: TopLayer*
G04 EasyEDA v6.5.54, 2026-05-29 14:34:20*
G04 3deff03bdcef4144b0e6e05cb694794e,3338f73d7d0e4d4db1eb2cef705be3f1,10*
G04 Gerber Generator version 0.2*
G04 Scale: 100 percent, Rotated: No, Reflected: No *
G04 Dimensions in millimeters *
G04 leading zeros omitted , absolute positions ,4 integer and 5 decimal *
%FSLAX45Y45*%
%MOMM*%

%ADD10C,2.5000*%
%ADD11C,1.5000*%
%ADD12C,2.2000*%
%ADD13O,1.599997X4.99999*%
%ADD14R,2.5400X2.5400*%
%ADD15C,2.5400*%
%ADD16C,0.0106*%

%LPD*%
D10*
X7948767Y-25400D02*
G01*
X8898712Y924544D01*
X8898712Y4991100D01*
X14249400Y3991863D02*
G01*
X14249400Y3429000D01*
X13931900Y3111500D01*
X11963400Y3111500D01*
X10452100Y4622800D01*
X10452100Y5626100D01*
X9829800Y6248400D01*
X9817608Y6248400D01*
X7974162Y5803900D02*
G01*
X8418662Y6248400D01*
X12687300Y6248400D01*
X13335000Y5600700D01*
X13944600Y5600700D01*
X14262100Y5918200D01*
X14262100Y6379387D01*
X6333997Y5435600D02*
G01*
X6680200Y5089397D01*
X6680200Y4178300D01*
X5575300Y3073400D01*
X5575300Y3009900D01*
X9639300Y1231900D02*
G01*
X9639300Y381000D01*
X9232900Y-25400D01*
X4965700Y-25400D01*
X2298700Y3374186D02*
G01*
X2298700Y3733800D01*
X2032000Y4000500D01*
X1460500Y4000500D01*
X1130300Y3670300D01*
X1130300Y1066800D01*
X2222500Y-25400D01*
X4965700Y-25400D01*
X5575300Y584200D01*
X5575300Y1231900D01*
X15125700Y4886705D02*
G01*
X15125700Y5054600D01*
X14871700Y5308600D01*
X14528800Y5308600D01*
X14249400Y5029200D01*
X14249400Y4491736D01*
X13772624Y2514600D02*
G01*
X14236700Y2050524D01*
X14236700Y1545386D01*
X9296145Y37845D02*
G01*
X9689591Y-355600D01*
X14401800Y-355600D01*
X15125700Y368300D01*
X15125700Y2095500D01*
X14706600Y2514600D01*
X12179300Y2514600D01*
X11794236Y2129536D01*
X11794236Y1409700D01*
X15125700Y2165301D02*
G01*
X15125700Y7531100D01*
X14960600Y7696200D01*
X14389100Y7696200D01*
X14262100Y7569200D01*
X14262100Y6879336D01*
X11294363Y1409700D02*
G01*
X11294363Y694436D01*
X11607800Y381000D01*
X13931900Y381000D01*
X14236700Y685800D01*
X14236700Y1045463D01*
X7605775Y5435600D02*
G01*
X7974075Y5803900D01*
X4974336Y5435600D02*
G01*
X7605775Y5435600D01*
X9639300Y3009900D02*
G01*
X10439400Y3009900D01*
X11294318Y2154981D01*
X11294318Y1409700D01*
X7974162Y5803900D02*
G01*
X8398713Y5379349D01*
X8398713Y4991100D01*
X2298700Y2874263D02*
G01*
X2298700Y2184400D01*
X2514600Y1968500D01*
X3149600Y1968500D01*
X3530600Y2349500D01*
X3530600Y4978400D01*
X3987800Y5435600D01*
X4474463Y5435600D01*
D11*
G01*
X11794312Y1409700D03*
G01*
X11294313Y1409700D03*
G01*
X8898712Y4991100D03*
G01*
X8398713Y4991100D03*
D12*
G01*
X14236700Y1045387D03*
G01*
X14236700Y1545386D03*
G01*
X14249400Y3991787D03*
G01*
X14249400Y4491786D03*
G01*
X14262100Y6379387D03*
G01*
X14262100Y6879386D03*
G01*
X2298700Y3374186D03*
G01*
X2298700Y2874187D03*
D13*
G01*
X4474413Y5435600D03*
G01*
X4974386Y5435600D03*
D14*
G01*
X5575300Y3009900D03*
D15*
G01*
X5575300Y1231900D03*
G01*
X9639300Y1231900D03*
G01*
X9639300Y3009900D03*
M02*
