G04 Layer: TopSilkscreenLayer*
G04 EasyEDA v6.5.54, 2026-05-29 14:34:20*
G04 3deff03bdcef4144b0e6e05cb694794e,3338f73d7d0e4d4db1eb2cef705be3f1,10*
G04 Gerber Generator version 0.2*
G04 Scale: 100 percent, Rotated: No, Reflected: No *
G04 Dimensions in millimeters *
G04 leading zeros omitted , absolute positions ,4 integer and 5 decimal *
%FSLAX45Y45*%
%MOMM*%

%ADD10C,0.2032*%
%ADD11C,0.1524*%
%ADD12C,0.2540*%
%ADD13C,0.1200*%
%ADD14C,0.0151*%

%LPD*%
D10*
X1716278Y3886200D02*
G01*
X1522476Y3886200D01*
X1716278Y3886200D02*
G01*
X1716278Y3803142D01*
X1707134Y3775455D01*
X1697989Y3766057D01*
X1679447Y3756913D01*
X1660905Y3756913D01*
X1642363Y3766057D01*
X1633220Y3775455D01*
X1624076Y3803142D01*
X1624076Y3886200D02*
G01*
X1624076Y3803142D01*
X1614678Y3775455D01*
X1605534Y3766057D01*
X1586992Y3756913D01*
X1559305Y3756913D01*
X1540763Y3766057D01*
X1531620Y3775455D01*
X1522476Y3803142D01*
X1522476Y3886200D01*
X1716278Y3622039D02*
G01*
X1522476Y3695954D01*
X1716278Y3622039D02*
G01*
X1522476Y3548126D01*
X1586992Y3668268D02*
G01*
X1586992Y3575812D01*
X1716278Y3422650D02*
G01*
X1522476Y3422650D01*
X1716278Y3487165D02*
G01*
X1716278Y3357879D01*
X1716278Y3232150D02*
G01*
X1522476Y3232150D01*
X1716278Y3296920D02*
G01*
X1716278Y3167634D01*
X1716278Y3106673D02*
G01*
X1522476Y3106673D01*
X1716278Y3106673D02*
G01*
X1716278Y2986531D01*
X1624076Y3106673D02*
G01*
X1624076Y3032760D01*
X1522476Y3106673D02*
G01*
X1522476Y2986531D01*
X1716278Y2925571D02*
G01*
X1522476Y2925571D01*
X1716278Y2925571D02*
G01*
X1716278Y2842513D01*
X1707134Y2814828D01*
X1697989Y2805429D01*
X1679447Y2796286D01*
X1660905Y2796286D01*
X1642363Y2805429D01*
X1633220Y2814828D01*
X1624076Y2842513D01*
X1624076Y2925571D01*
X1624076Y2861055D02*
G01*
X1522476Y2796286D01*
X1716278Y2735326D02*
G01*
X1624076Y2661412D01*
X1522476Y2661412D01*
X1716278Y2587497D02*
G01*
X1624076Y2661412D01*
X1716278Y2384297D02*
G01*
X1522476Y2384297D01*
X1716278Y2323337D02*
G01*
X1522476Y2323337D01*
X1716278Y2323337D02*
G01*
X1522476Y2194052D01*
X1716278Y2194052D02*
G01*
X1522476Y2194052D01*
X1173734Y3505200D02*
G01*
X1173734Y3338829D01*
X1247647Y3277870D02*
G01*
X1256792Y3259581D01*
X1284478Y3231895D01*
X1090676Y3231895D01*
X1238250Y3161537D02*
G01*
X1247647Y3161537D01*
X1266189Y3152394D01*
X1275334Y3143250D01*
X1284478Y3124707D01*
X1284478Y3087623D01*
X1275334Y3069336D01*
X1266189Y3059937D01*
X1247647Y3050794D01*
X1229105Y3050794D01*
X1210563Y3059937D01*
X1182878Y3078479D01*
X1090676Y3170936D01*
X1090676Y3041650D01*
X1256792Y2897378D02*
G01*
X1090676Y2897378D01*
X1173734Y2980689D02*
G01*
X1173734Y2814320D01*
X1284478Y2753360D02*
G01*
X1090676Y2679445D01*
X1284478Y2605531D02*
G01*
X1090676Y2679445D01*
X13543534Y7086600D02*
G01*
X13543534Y6920229D01*
X13617447Y6859270D02*
G01*
X13626591Y6840981D01*
X13654277Y6813295D01*
X13460475Y6813295D01*
X13608050Y6742937D02*
G01*
X13617447Y6742937D01*
X13635990Y6733794D01*
X13645134Y6724650D01*
X13654277Y6706108D01*
X13654277Y6669023D01*
X13645134Y6650736D01*
X13635990Y6641337D01*
X13617447Y6632194D01*
X13598906Y6632194D01*
X13580363Y6641337D01*
X13552677Y6659879D01*
X13460475Y6752336D01*
X13460475Y6623050D01*
X13626591Y6478778D02*
G01*
X13460475Y6478778D01*
X13543534Y6562089D02*
G01*
X13543534Y6395720D01*
X13654277Y6334760D02*
G01*
X13460475Y6260845D01*
X13654277Y6186931D02*
G01*
X13460475Y6260845D01*
X13568934Y4673600D02*
G01*
X13568934Y4507229D01*
X13642847Y4446270D02*
G01*
X13651991Y4427981D01*
X13679677Y4400295D01*
X13485875Y4400295D01*
X13633450Y4329937D02*
G01*
X13642847Y4329937D01*
X13661390Y4320794D01*
X13670534Y4311650D01*
X13679677Y4293107D01*
X13679677Y4256023D01*
X13670534Y4237736D01*
X13661390Y4228337D01*
X13642847Y4219194D01*
X13624306Y4219194D01*
X13605763Y4228337D01*
X13578077Y4246879D01*
X13485875Y4339336D01*
X13485875Y4210050D01*
X13651991Y4065778D02*
G01*
X13485875Y4065778D01*
X13568934Y4149089D02*
G01*
X13568934Y3982720D01*
X13679677Y3921760D02*
G01*
X13485875Y3847845D01*
X13679677Y3773931D02*
G01*
X13485875Y3847845D01*
X13518134Y1752600D02*
G01*
X13518134Y1586229D01*
X13628877Y1414526D02*
G01*
X13628877Y1506981D01*
X13545820Y1516126D01*
X13554963Y1506981D01*
X13564361Y1479295D01*
X13564361Y1451610D01*
X13554963Y1423670D01*
X13536675Y1405381D01*
X13508990Y1395984D01*
X13490447Y1395984D01*
X13462761Y1405381D01*
X13444220Y1423670D01*
X13435075Y1451610D01*
X13435075Y1479295D01*
X13444220Y1506981D01*
X13453363Y1516126D01*
X13471906Y1525270D01*
X13601191Y1251965D02*
G01*
X13435075Y1251965D01*
X13518134Y1335023D02*
G01*
X13518134Y1168907D01*
X13628877Y1107947D02*
G01*
X13435075Y1034034D01*
X13628877Y960120D02*
G01*
X13435075Y1034034D01*
X11043158Y799592D02*
G01*
X11043158Y633476D01*
X10960100Y716534D02*
G01*
X11126470Y716534D01*
X11279631Y827278D02*
G01*
X11187429Y697992D01*
X11325859Y697992D01*
X11279631Y827278D02*
G01*
X11279631Y633476D01*
X11516106Y827278D02*
G01*
X11423650Y633476D01*
X11386820Y827278D02*
G01*
X11516106Y827278D01*
X11632438Y827278D02*
G01*
X11604752Y818134D01*
X11586209Y790447D01*
X11577065Y744220D01*
X11577065Y716534D01*
X11586209Y670305D01*
X11604752Y642620D01*
X11632438Y633476D01*
X11650979Y633476D01*
X11678665Y642620D01*
X11697208Y670305D01*
X11706352Y716534D01*
X11706352Y744220D01*
X11697208Y790447D01*
X11678665Y818134D01*
X11650979Y827278D01*
X11632438Y827278D01*
X11767311Y716534D02*
G01*
X11933681Y716534D01*
X12136881Y762762D02*
G01*
X12136881Y670305D01*
X12146025Y642620D01*
X12164568Y633476D01*
X12192254Y633476D01*
X12210795Y642620D01*
X12238481Y670305D01*
X12238481Y762762D02*
G01*
X12238481Y633476D01*
X12373356Y827278D02*
G01*
X12354813Y827278D01*
X12336272Y818134D01*
X12327127Y790447D01*
X12327127Y633476D01*
X12299441Y762762D02*
G01*
X12363958Y762762D01*
X8071358Y4368292D02*
G01*
X8071358Y4202176D01*
X7988300Y4285234D02*
G01*
X8154670Y4285234D01*
X8215629Y4359147D02*
G01*
X8233918Y4368292D01*
X8261604Y4395978D01*
X8261604Y4202176D01*
X8378190Y4395978D02*
G01*
X8350250Y4386834D01*
X8331961Y4359147D01*
X8322563Y4312920D01*
X8322563Y4285234D01*
X8331961Y4239005D01*
X8350250Y4211320D01*
X8378190Y4202176D01*
X8396477Y4202176D01*
X8424163Y4211320D01*
X8442706Y4239005D01*
X8451850Y4285234D01*
X8451850Y4312920D01*
X8442706Y4359147D01*
X8424163Y4386834D01*
X8396477Y4395978D01*
X8378190Y4395978D01*
X8568436Y4395978D02*
G01*
X8540750Y4386834D01*
X8522208Y4359147D01*
X8512809Y4312920D01*
X8512809Y4285234D01*
X8522208Y4239005D01*
X8540750Y4211320D01*
X8568436Y4202176D01*
X8586724Y4202176D01*
X8614409Y4211320D01*
X8632952Y4239005D01*
X8642350Y4285234D01*
X8642350Y4312920D01*
X8632952Y4359147D01*
X8614409Y4386834D01*
X8586724Y4395978D01*
X8568436Y4395978D01*
X8703309Y4285234D02*
G01*
X8869425Y4285234D01*
X9072625Y4331462D02*
G01*
X9072625Y4239005D01*
X9081770Y4211320D01*
X9100311Y4202176D01*
X9127997Y4202176D01*
X9146540Y4211320D01*
X9174225Y4239005D01*
X9174225Y4331462D02*
G01*
X9174225Y4202176D01*
X9309100Y4395978D02*
G01*
X9290558Y4395978D01*
X9272270Y4386834D01*
X9262872Y4359147D01*
X9262872Y4202176D01*
X9235186Y4331462D02*
G01*
X9299956Y4331462D01*
D11*
X7581900Y3379215D02*
G01*
X7581900Y3301237D01*
X7586979Y3285744D01*
X7597393Y3275329D01*
X7613141Y3270250D01*
X7623556Y3270250D01*
X7639050Y3275329D01*
X7649463Y3285744D01*
X7654543Y3301237D01*
X7654543Y3379215D01*
X7688834Y3358387D02*
G01*
X7699247Y3363721D01*
X7714995Y3379215D01*
X7714995Y3270250D01*
G36*
X5164378Y5465622D02*
G01*
X5164378Y5405577D01*
X5344414Y5405577D01*
X5344414Y5465622D01*
G37*
D12*
X13969974Y787488D02*
G01*
X13969974Y749388D01*
X14074114Y749388D01*
X14074114Y787488D01*
X13836695Y1795401D02*
G01*
X13836695Y795401D01*
X13836695Y795401D02*
G01*
X14606694Y795401D01*
X13836695Y1795401D02*
G01*
X14606694Y1795401D01*
X14606694Y1795401D02*
G01*
X14606694Y795401D01*
X14016639Y1795401D02*
G01*
X14016639Y795401D01*
X14421154Y1795401D02*
G01*
X14421154Y795401D01*
X13982674Y3733888D02*
G01*
X13982674Y3695788D01*
X14086814Y3695788D01*
X14086814Y3733888D01*
X13849395Y4741801D02*
G01*
X13849395Y3741801D01*
X13849395Y3741801D02*
G01*
X14619394Y3741801D01*
X13849395Y4741801D02*
G01*
X14619394Y4741801D01*
X14619394Y4741801D02*
G01*
X14619394Y3741801D01*
X14029339Y4741801D02*
G01*
X14029339Y3741801D01*
X14433854Y4741801D02*
G01*
X14433854Y3741801D01*
X13995374Y6121488D02*
G01*
X13995374Y6083388D01*
X14099514Y6083388D01*
X14099514Y6121488D01*
X13862095Y7129401D02*
G01*
X13862095Y6129401D01*
X13862095Y6129401D02*
G01*
X14632094Y6129401D01*
X13862095Y7129401D02*
G01*
X14632094Y7129401D01*
X14632094Y7129401D02*
G01*
X14632094Y6129401D01*
X14042039Y7129401D02*
G01*
X14042039Y6129401D01*
X14446554Y7129401D02*
G01*
X14446554Y6129401D01*
X2565425Y3632111D02*
G01*
X2565425Y3670211D01*
X2461285Y3670211D01*
X2461285Y3632111D01*
X2698704Y2624198D02*
G01*
X2698704Y3624198D01*
X2698704Y3624198D02*
G01*
X1928705Y3624198D01*
X2698704Y2624198D02*
G01*
X1928705Y2624198D01*
X1928705Y2624198D02*
G01*
X1928705Y3624198D01*
X2518760Y2624198D02*
G01*
X2518760Y3624198D01*
X2114245Y2624198D02*
G01*
X2114245Y3624198D01*
X5394398Y5135600D02*
G01*
X4584509Y5135600D01*
X4584509Y5172082D01*
X5394515Y5735573D02*
G01*
X4584509Y5735573D01*
X4584509Y5155692D01*
X5394398Y5735599D02*
G01*
X5394398Y5135600D01*
X4224400Y5965598D02*
G01*
X5734397Y5965598D01*
X5734397Y4915601D01*
X4224400Y4915601D01*
X4224400Y5965598D01*
D13*
X9794791Y3193399D02*
G01*
X5419801Y3193399D01*
X5419801Y1048402D01*
X9794791Y1048402D01*
X9794791Y3193399D01*
X5420301Y3167900D02*
G01*
X5550301Y3167900D01*
X5420301Y2852399D02*
G01*
X5733300Y2851899D01*
X5733300Y2882900D01*
X5420301Y1389903D02*
G01*
X5733300Y1389903D01*
X5733300Y1073904D01*
X5420301Y1073904D01*
X6450220Y2909486D02*
G01*
X6450220Y2893331D01*
X7466319Y3046138D02*
G01*
X7466319Y2110991D01*
X7458562Y2103234D01*
X6458077Y2103234D01*
X6450322Y2110991D01*
X6450322Y3046138D01*
X6615320Y3075233D01*
X7301318Y3075233D01*
X7466319Y3046138D01*
X6523461Y1179080D02*
G01*
X6478463Y1179080D01*
X6478463Y1354081D01*
X6523461Y1354081D01*
X6523461Y1151582D02*
G01*
X6523461Y1381582D01*
X6533461Y1391582D02*
G01*
X6893460Y1391582D01*
X6660321Y2103234D02*
G01*
X6660321Y1640235D01*
X6576321Y1640235D01*
X6576321Y2103234D01*
X6830321Y2103234D02*
G01*
X6830321Y1640235D01*
X6746321Y1640235D01*
X6746321Y2103234D01*
X6816432Y1381582D02*
G01*
X6816432Y1151582D01*
X6893460Y1141582D02*
G01*
X6533461Y1141582D01*
X6903460Y1381582D02*
G01*
X6903460Y1151582D01*
X6903460Y1354081D02*
G01*
X6948462Y1354081D01*
X6948462Y1179080D01*
X6903460Y1179080D01*
X6903559Y1330434D02*
G01*
X6903559Y1339888D01*
X7000321Y2103234D02*
G01*
X7000321Y1640235D01*
X6916320Y1640235D01*
X6916320Y2103234D01*
X7170320Y2103234D02*
G01*
X7170320Y1640235D01*
X7086320Y1640235D01*
X7086320Y2103234D01*
X7340320Y2103234D02*
G01*
X7340320Y1640235D01*
X7256320Y1640235D01*
X7256320Y2103234D01*
X7466319Y2967233D02*
G01*
X6450322Y2967233D01*
X7622034Y2251321D02*
G01*
X7622034Y1281323D01*
X7772034Y1131323D02*
G01*
X8742032Y1131323D01*
X7905275Y2651671D02*
G01*
X7905275Y3141670D01*
X7910273Y3146671D02*
G01*
X8900271Y3146671D01*
X8008934Y3014809D02*
G01*
X8011350Y3011670D01*
X8010154Y3009171D01*
X8007710Y3009694D01*
X8010154Y3009171D02*
G01*
X8010870Y3012292D01*
X8011350Y2961670D02*
G01*
X8219196Y2961670D01*
X8219196Y3011670D02*
G01*
X8011350Y3011670D01*
X8742032Y2401321D02*
G01*
X7772034Y2401321D01*
X8761191Y3146770D02*
G01*
X8756703Y3146770D01*
X8769525Y3146770D02*
G01*
X8766129Y3146770D01*
X8892031Y1281323D02*
G01*
X8892031Y2251321D01*
X8900271Y2646672D02*
G01*
X7910273Y2646672D01*
X8905273Y3141670D02*
G01*
X8905273Y2651671D01*
X9240161Y3039869D02*
G01*
X9320161Y3039869D01*
X9240161Y2911871D02*
G01*
X9240161Y3071870D01*
X9320161Y3071870D01*
X9320161Y2911871D01*
X9240161Y2911871D01*
X9320161Y2943870D02*
G01*
X9240161Y2943870D01*
X9797290Y2851899D02*
G01*
X9481291Y2851899D01*
X9481291Y3167900D01*
X9792792Y3167900D01*
X9792792Y1073904D02*
G01*
X9481291Y1073904D01*
X9481291Y1389903D01*
X9792792Y1389903D01*
G75*
G01*
X6533462Y1391582D02*
G03*
X6523462Y1381582I0J-10000D01*
G75*
G01*
X6523462Y1151583D02*
G03*
X6533462Y1141583I9992J-8D01*
G75*
G01*
X6903461Y1381582D02*
G03*
X6893461Y1391582I-10008J-7D01*
G75*
G01*
X6893461Y1141583D02*
G03*
X6903461Y1151583I0J10000D01*
G75*
G01*
X7772034Y2401321D02*
G03*
X7622035Y2251321I1J-150000D01*
G75*
G01*
X7756817Y2049884D02*
G03*
X7753408Y2063300I-8686J4934D01*
G75*
G01*
X7960055Y2269947D02*
G03*
X7753408Y2063300I-127286J-79361D01*
G75*
G01*
X7753408Y1469344D02*
G03*
X7756817Y1482763I-5296J8488D01*
G75*
G01*
X7756817Y2049884D02*
G03*
X7756817Y1482761I500218J-283562D01*
G75*
G01*
X7622035Y1281323D02*
G03*
X7772034Y1131324I150000J1D01*
G75*
G01*
X7910274Y3146669D02*
G03*
X7905275Y3141670I0J-4999D01*
G75*
G01*
X7905275Y2651671D02*
G03*
X7910274Y2646672I5004J5D01*
G75*
G01*
X7753408Y1469344D02*
G03*
X7960058Y1262698I79369J-127280D01*
G75*
G01*
X7973474Y1266106D02*
G03*
X7960055Y1262698I-4935J-8688D01*
G75*
G01*
X7960055Y2269947D02*
G03*
X7973474Y2266539I8490J5304D01*
G75*
G01*
X8540595Y2266539D02*
G03*
X7973474Y2266541I-283563J-500216D01*
G75*
G01*
X8008932Y2958531D02*
G03*
X8007711Y2963647I106351J28103D01*
G75*
G01*
X7973474Y1266106D02*
G03*
X8540595Y1266106I283561J500217D01*
G75*
G01*
X8554011Y1262698D02*
G03*
X8540595Y1266106I-8487J-5298D01*
G75*
G01*
X8540595Y2266539D02*
G03*
X8554011Y2269947I4932J8696D01*
G75*
G01*
X8760661Y2063300D02*
G03*
X8554014Y2269947I-79365J127283D01*
G75*
G01*
X8892032Y2251321D02*
G03*
X8742032Y2401321I-149999J1D01*
G75*
G01*
X8757252Y1482763D02*
G03*
X8757252Y2049884I-500215J283561D01*
G75*
G01*
X8760661Y2063300D02*
G03*
X8757252Y2049884I5304J-8489D01*
G75*
G01*
X8554011Y1262698D02*
G03*
X8760661Y1469344I127285J79362D01*
G75*
G01*
X8757252Y1482763D02*
G03*
X8760661Y1469344I8699J-4933D01*
G75*
G01*
X8742032Y1131324D02*
G03*
X8892032Y1281323I1J149999D01*
G75*
G01*
X8905273Y3141670D02*
G03*
X8900272Y3146669I-4996J3D01*
G75*
G01*
X8900272Y2646672D02*
G03*
X8905270Y2651671I-3J5002D01*
G75*
G01*
X6239965Y2114159D02*
G03*
X6239965Y2113740I-399999J-210D01*
G75*
G01*
X6243198Y2946400D02*
G03*
X6243198Y2946009I-159899J-196D01*
G75*
G01*
X6580116Y2194443D02*
G03*
X6580114Y2194037I-37500J31D01*
G75*
G01*
X8782032Y1766324D02*
G03*
X8782032Y1765772I-525000J-276D01*
G75*
G01*
X9291193Y1295403D02*
G03*
X9291193Y1295014I-159899J-195D01*
G75*
G01*
X9778223Y2064380D02*
G03*
X9778223Y2063963I-399999J-208D01*
D12*
G75*
G01
X12044324Y1409700D02*
G03X12044324Y1409700I-499999J0D01*
G75*
G01
X9148724Y4991100D02*
G03X9148724Y4991100I-499999J0D01*
G75*
G01
X4789830Y5435600D02*
G03X4789830Y5435600I-85446J0D01*
M02*
